<svg width="24" height="25" viewBox="0 0 24 25" fill="none" xmlns="http://www.w3.org/2000/svg">
<g clip-path="url(#clip0_715_1809)">
<path d="M12 2.5C9.89206 2.49989 7.86926 3.33176 6.37124 4.81479C4.87323 6.29782 4.02108 8.31216 4 10.42C4 15.9 11.05 22 11.35 22.26C11.5311 22.4149 11.7616 22.5001 12 22.5001C12.2384 22.5001 12.4689 22.4149 12.65 22.26C13 22 20 15.9 20 10.42C19.9789 8.31216 19.1268 6.29782 17.6288 4.81479C16.1307 3.33176 14.1079 2.49989 12 2.5ZM12 20.15C10.33 18.56 6 14.15 6 10.42C6 8.8287 6.63214 7.30258 7.75736 6.17736C8.88258 5.05214 10.4087 4.42 12 4.42C13.5913 4.42 15.1174 5.05214 16.2426 6.17736C17.3679 7.30258 18 8.8287 18 10.42C18 14.12 13.67 18.56 12 20.15Z" fill="#1C1C28"/>
<path d="M12 6.5C11.3078 6.5 10.6311 6.70527 10.0555 7.08986C9.47993 7.47444 9.03133 8.02107 8.76642 8.66061C8.50152 9.30015 8.4322 10.0039 8.56725 10.6828C8.7023 11.3618 9.03564 11.9854 9.52513 12.4749C10.0146 12.9644 10.6383 13.2977 11.3172 13.4327C11.9961 13.5678 12.6999 13.4985 13.3394 13.2336C13.9789 12.9687 14.5256 12.5201 14.9101 11.9445C15.2947 11.3689 15.5 10.6922 15.5 10C15.5 9.07174 15.1313 8.1815 14.4749 7.52513C13.8185 6.86875 12.9283 6.5 12 6.5ZM12 11.5C11.7033 11.5 11.4133 11.412 11.1666 11.2472C10.92 11.0824 10.7277 10.8481 10.6142 10.574C10.5007 10.2999 10.4709 9.99834 10.5288 9.70736C10.5867 9.41639 10.7296 9.14912 10.9393 8.93934C11.1491 8.72956 11.4164 8.5867 11.7074 8.52882C11.9983 8.47094 12.2999 8.50065 12.574 8.61418C12.8481 8.72771 13.0824 8.91997 13.2472 9.16665C13.412 9.41332 13.5 9.70333 13.5 10C13.5 10.3978 13.342 10.7794 13.0607 11.0607C12.7794 11.342 12.3978 11.5 12 11.5Z" fill="#1C1C28"/>
</g>
<defs>
<clipPath id="clip0_715_1809">
<rect width="24" height="24" fill="white" transform="translate(0 0.5)"/>
</clipPath>
</defs>
</svg>
