<svg width="18" height="18" viewBox="0 0 18 18" fill="none" xmlns="http://www.w3.org/2000/svg">
<path d="M15.7218 9.75509C15.5539 11.2799 14.8712 12.7019 13.7865 13.7866C12.7018 14.8713 11.2798 15.5539 9.75503 15.7219V16.5526C9.75503 16.6518 9.7355 16.75 9.69755 16.8416C9.65961 16.9332 9.60399 17.0164 9.53387 17.0866C9.46376 17.1567 9.38052 17.2123 9.28891 17.2502C9.1973 17.2882 9.09911 17.3077 8.99995 17.3077C8.9008 17.3077 8.80261 17.2882 8.711 17.2502C8.61939 17.2123 8.53615 17.1567 8.46603 17.0866C8.39592 17.0164 8.3403 16.9332 8.30235 16.8416C8.26441 16.75 8.24488 16.6518 8.24488 16.5526V15.7219C6.71069 15.5789 5.27467 14.9044 4.18514 13.8148C3.0956 12.7253 2.42105 11.2893 2.27811 9.75509H1.44734C1.34818 9.75509 1.24999 9.73556 1.15838 9.69762C1.06677 9.65967 0.983533 9.60405 0.913418 9.53393C0.843302 9.46382 0.787684 9.38058 0.749738 9.28897C0.711791 9.19736 0.692261 9.09917 0.692261 9.00002C0.692261 8.90086 0.711791 8.80267 0.749738 8.71106C0.787684 8.61945 0.843302 8.53621 0.913418 8.4661C0.983533 8.39598 1.06677 8.34036 1.15838 8.30241C1.24999 8.26447 1.34818 8.24494 1.44734 8.24494H2.27811C2.42105 6.71075 3.0956 5.27473 4.18514 4.1852C5.27467 3.09567 6.71069 2.42111 8.24488 2.27817V1.4474C8.24488 1.34824 8.26441 1.25005 8.30235 1.15844C8.3403 1.06683 8.39592 0.983594 8.46603 0.913479C8.53615 0.843363 8.61939 0.787745 8.711 0.749799C8.80261 0.711852 8.9008 0.692322 8.99995 0.692322C9.09911 0.692322 9.1973 0.711852 9.28891 0.749799C9.38052 0.787745 9.46376 0.843363 9.53387 0.913479C9.60399 0.983594 9.65961 1.06683 9.69755 1.15844C9.7355 1.25005 9.75503 1.34824 9.75503 1.4474V2.27817C11.2798 2.44611 12.7018 3.12873 13.7865 4.21343C14.8712 5.29814 15.5539 6.72015 15.7218 8.24494H16.5526C16.6517 8.24494 16.7499 8.26447 16.8415 8.30241C16.9331 8.34036 17.0164 8.39598 17.0865 8.4661C17.1566 8.53621 17.2122 8.61945 17.2502 8.71106C17.2881 8.80267 17.3076 8.90086 17.3076 9.00002C17.3076 9.09917 17.2881 9.19736 17.2502 9.28897C17.2122 9.38058 17.1566 9.46382 17.0865 9.53393C17.0164 9.60405 16.9331 9.65967 16.8415 9.69762C16.7499 9.73556 16.6517 9.75509 16.5526 9.75509H15.7218ZM8.99995 14.2865C10.0455 14.2865 11.0676 13.9764 11.937 13.3955C12.8063 12.8147 13.4839 11.989 13.884 11.0231C14.2841 10.0571 14.3888 8.99415 14.1848 7.96868C13.9809 6.9432 13.4774 6.00125 12.738 5.26192C11.9987 4.5226 11.0568 4.01911 10.0313 3.81513C9.00582 3.61115 7.94289 3.71584 6.97691 4.11596C6.01094 4.51608 5.18531 5.19366 4.60442 6.06301C4.02354 6.93237 3.71349 7.95445 3.71349 9.00002C3.7092 9.69544 3.84301 10.3848 4.10716 11.0281C4.37131 11.6714 4.76055 12.2559 5.2523 12.7477C5.74405 13.2394 6.32853 13.6287 6.97185 13.8928C7.61517 14.157 8.30453 14.2908 8.99995 14.2865ZM8.99995 12.0203C8.40237 12.0203 7.81821 11.8431 7.32135 11.5111C6.82449 11.1791 6.43725 10.7072 6.20861 10.1551C5.97997 9.60294 5.92019 8.99543 6.03684 8.40934C6.15349 7.82325 6.44133 7.28492 6.86395 6.86243C7.28657 6.43994 7.82499 6.15227 8.41111 6.0358C8.99723 5.91933 9.60473 5.97929 10.1568 6.2081C10.7088 6.43691 11.1806 6.8243 11.5125 7.32126C11.8443 7.81822 12.0214 8.40243 12.0212 9.00002C12.019 9.80062 11.7 10.5678 11.1339 11.1339C10.5677 11.7 9.80056 12.0191 8.99995 12.0212V12.0203ZM8.99995 10.5102C9.29863 10.5102 9.59061 10.4216 9.83895 10.2557C10.0873 10.0897 10.2809 9.85387 10.3952 9.57793C10.5095 9.30198 10.5394 8.99834 10.4811 8.7054C10.4228 8.41246 10.279 8.14337 10.0678 7.93217C9.8566 7.72098 9.58751 7.57715 9.29457 7.51888C9.00163 7.46061 8.69799 7.49051 8.42204 7.60481C8.1461 7.71911 7.91025 7.91268 7.74431 8.16102C7.57837 8.40936 7.4898 8.70133 7.4898 9.00002C7.49102 9.40016 7.65051 9.78357 7.93346 10.0665C8.2164 10.3495 8.59981 10.509 8.99995 10.5102Z" fill="#6440FE"/>
</svg>
